<?xml version="1.0" encoding="utf-8"?>
<!-- Generator: Adobe Illustrator 22.0.0, SVG Export Plug-In . SVG Version: 6.00 Build 0)  -->
<svg version="1.2" baseProfile="tiny" id="Camada_1"
	 xmlns="http://www.w3.org/2000/svg" xmlns:xlink="http://www.w3.org/1999/xlink" x="0px" y="0px" viewBox="0 0 131.8 37"
	 xml:space="preserve">
<g>
	<path fill="#D5862A" d="M126.2,26.1L123.9,12c-0.5-2.8-1.9-5.1-4.1-7c-1.1-0.9-2.3-1.6-3.6-2.2c-1.2-0.5-2.5-0.8-3.9-0.8h-1.5
		h-10.6H16.9c-1.3,0-2.6,0.3-3.9,0.8C11.8,3.4,10.6,4.1,9.5,5C7.3,6.9,6,9.2,5.4,12L3.2,26.1c-0.1,0.5-0.1,1.1-0.1,1.6
		c0,1.1,0.2,2.2,0.6,3.1c0.6,1.4,1.5,2.5,2.8,3.3c1.2,0.8,2.7,1.2,4.4,1.2h6.9H21h97.5c1.7,0,3.2-0.4,4.4-1.2
		c1.3-0.8,2.2-1.9,2.8-3.3c0.4-1,0.6-2,0.6-3.1C126.3,27.2,126.2,26.7,126.2,26.1z M120.4,29.1c-0.9,1-2,1.5-3.4,1.5H24.5H14.3h-2
		c-1.4,0-2.6-0.5-3.4-1.5c-0.7-0.8-1.1-1.8-1.1-2.9c0-0.2,0-0.5,0-0.7l2.3-14.2c0.2-1.2,0.8-2.3,1.8-3.2c1-0.8,2.2-1.3,3.4-1.3h88.3
		h3.7h6.4c1.2,0,2.4,0.4,3.4,1.3c1,0.8,1.6,1.9,1.8,3.2l2.3,14.2c0,0.2,0,0.5,0,0.7C121.5,27.3,121.1,28.3,120.4,29.1z"/>
</g>
<g>
	<path fill="#C4BEBF" d="M28,27.6h-4.7c-1,0-1.9-0.2-2.6-0.7c-0.7-0.5-1.3-1.2-1.7-2c-0.2-0.6-0.4-1.2-0.4-1.9c0-0.3,0-0.6,0.1-0.9
		l1-6.5c0.3-1.5,1-2.8,2.2-3.9c0.6-0.5,1.2-0.9,1.9-1.2c0.7-0.3,1.4-0.4,2.2-0.4h6.8l-0.3,2.2c-0.1,0.6-0.4,1.1-0.9,1.5
		c-0.5,0.4-1,0.6-1.6,0.6h-4.7c-0.3,0-0.6,0.1-0.9,0.3c-0.3,0.2-0.4,0.5-0.5,0.8L23,22.1c0,0.1,0,0.1,0,0.2c0,0.3,0.1,0.5,0.2,0.6
		c0.2,0.2,0.4,0.3,0.8,0.3h6.8l-0.3,2.1c-0.1,0.6-0.4,1.1-0.9,1.5C29.1,27.4,28.6,27.6,28,27.6z"/>
	<path fill="#C4BEBF" d="M33.1,27.6l2-12.5c0.3-1.4,0.9-2.6,2-3.5c0.5-0.5,1.1-0.8,1.8-1.1c0.6-0.3,1.3-0.4,2-0.4h5.6
		c0.7,0,1.3,0.1,1.9,0.4c0.6,0.3,1,0.6,1.4,1.1c0.6,0.8,0.9,1.7,0.9,2.7c0,0.3,0,0.5-0.1,0.8L49,25.5c-0.1,0.6-0.4,1.1-0.9,1.5
		c-0.5,0.4-1,0.6-1.6,0.6h-2.1l0.9-5.9h-6.9l-0.6,3.8c-0.1,0.6-0.4,1.1-0.9,1.5c-0.5,0.4-1,0.6-1.6,0.6H33.1z M46,17.4l0.4-2.3
		c0,0,0-0.1,0-0.1c0-0.1,0-0.3-0.1-0.4c-0.1-0.1-0.3-0.2-0.4-0.2h-5.6c-0.2,0-0.4,0.1-0.5,0.2c-0.2,0.1-0.2,0.3-0.3,0.5l-0.4,2.3H46
		z"/>
	<path fill="#C4BEBF" d="M64.7,10.2c0.8,0,1.4,0.2,2,0.6c0.6,0.4,1,0.9,1.3,1.5c0.2,0.4,0.3,0.9,0.3,1.4c0,0.2,0,0.5-0.1,0.7l-0.6,4
		c-0.2,0.9-0.6,1.8-1.2,2.5c-0.6,0.7-1.4,1.2-2.3,1.5l0.3,0.8l1.8,4.5h-2.5c-1.1,0-1.9-0.2-2.3-0.5s-0.8-1-1.2-2l-1-2.6h-1.8
		l-0.5,2.9c-0.1,0.6-0.4,1.1-0.9,1.5c-0.5,0.4-1,0.6-1.6,0.6h-2.1l2.5-15.3c0.1-0.6,0.4-1.1,0.9-1.5c0.5-0.4,1-0.6,1.6-0.6H64.7z
		 M63.5,17.2l0.3-1.7c0-0.1,0-0.1,0-0.2c0-0.2-0.1-0.4-0.2-0.6c-0.2-0.2-0.4-0.3-0.7-0.3h-4.2L58,18.2h4.2c0.3,0,0.5-0.1,0.8-0.3
		S63.4,17.5,63.5,17.2z"/>
	<path fill="#C4BEBF" d="M77.6,27.6h-8.4c0.4-2.3,0.7-4.6,1.1-6.8c0.6-3.5,1.1-7.1,1.7-10.6h8.4c1,0,1.9,0.2,2.6,0.7
		c0.8,0.5,1.3,1.2,1.7,2c0.2,0.6,0.4,1.2,0.4,1.8c0,0.3,0,0.6-0.1,0.9l-1,6.5c-0.2,1-0.6,1.9-1.2,2.8c-0.6,0.8-1.4,1.5-2.3,2
		C79.5,27.4,78.6,27.6,77.6,27.6z M75.6,14.5l-1.4,8.9h4.1c0.3,0,0.6-0.1,0.9-0.3c0.3-0.2,0.4-0.5,0.5-0.8l1-6.5c0-0.1,0-0.1,0-0.2
		c0-0.2-0.1-0.5-0.2-0.6c-0.2-0.2-0.4-0.3-0.8-0.3H75.6z"/>
	<path fill="#C4BEBF" d="M86.3,27.6l2.5-15.3c0.1-0.6,0.4-1.1,0.9-1.5c0.5-0.4,1-0.6,1.6-0.6h2.1L91,25.5c-0.1,0.6-0.4,1.1-0.9,1.5
		c-0.5,0.4-1,0.6-1.6,0.6H86.3z"/>
	<path fill="#C4BEBF" d="M107.4,10.2c0.8,0,1.4,0.2,2,0.6c0.6,0.4,1,0.9,1.3,1.5c0.2,0.4,0.3,0.9,0.3,1.5c0,0.2,0,0.4,0,0.7l-0.6,4
		c-0.2,1.2-0.8,2.2-1.7,3c-0.9,0.8-2,1.2-3.1,1.2H100l-0.5,2.9c-0.1,0.6-0.4,1.1-0.9,1.5c-0.5,0.4-1,0.6-1.6,0.6h-2.1l2.5-15.3
		c0.1-0.6,0.4-1.1,0.9-1.5c0.5-0.4,1-0.6,1.6-0.6H107.4z M101.3,14.5l-0.6,3.8h4.2c0.3,0,0.5-0.1,0.8-0.3c0.2-0.2,0.4-0.4,0.4-0.7
		l0.3-1.7c0-0.1,0-0.1,0-0.2c0-0.2-0.1-0.4-0.2-0.6c-0.2-0.2-0.4-0.3-0.7-0.3H101.3z"/>
</g>
</svg>
